<svg xmlns="http://www.w3.org/2000/svg" width="16" height="16" fill="none">
  <path fill="#838383" d="M0 0h16v16H0z"/>
  <path fill="#fff" d="M-811-122a2 2 0 0 1 2-2H332a2 2 0 0 1 2 2v1462c0 1.1-.895 2-2 2H-809c-1.105 0-2-.9-2-2V-122Z"/>
  <path fill="#fff" fill-opacity=".1" d="M-809-123H332v-2H-809v2Zm1142 1v1462h2V-122h-2Zm-1 1463H-809v2H332v-2Zm-1142-1V-122h-2v1462h2Zm1 1c-.552 0-1-.45-1-1h-2c0 1.66 1.343 3 3 3v-2Zm1142-1c0 .55-.448 1-1 1v2c1.657 0 3-1.34 3-3h-2Zm-1-1463a1 1 0 0 1 1 1h2a3 3 0 0 0-3-3v2Zm-1141-2a3 3 0 0 0-3 3h2a1 1 0 0 1 1-1v-2Z"/>
  <rect width="16" height="16" fill="#F0F0F0" rx="2"/>
  <g fill="#00B068">
    <path d="M1.5 4.75h1.29c.832 0 1.394.037 1.686.112.294.075.518.198.671.37.153.171.248.362.287.574.038.209.057.62.057 1.236V9.32c0 .583-.029.974-.086 1.172a.877.877 0 0 1-.29.462c-.14.11-.312.187-.516.233-.205.043-.513.064-.926.064H1.5v-6.5Zm1.723 1.112v4.276c.249 0 .401-.048.459-.145.057-.099.086-.365.086-.799V6.67c0-.294-.01-.483-.029-.566a.262.262 0 0 0-.131-.18c-.068-.04-.196-.06-.385-.06ZM6.526 4.75H9.4v1.3H8.25v1.233h1.076V8.52H8.25v1.43h1.264v1.3H6.526v-6.5ZM14.5 4.75l-.876 6.5h-2.616l-.994-6.5h1.817c.21 1.79.36 3.304.45 4.54.09-1.25.185-2.36.283-3.332l.119-1.208H14.5Z"/>
  </g>
</svg>
